<svg width="24" height="24" viewBox="0 0 24 24" fill="none" xmlns="http://www.w3.org/2000/svg">
<path d="M12 5.49999L11.46 6.01999L11.47 6.03099L12 5.49999ZM13.47 8.02999C13.5387 8.10367 13.6215 8.16278 13.7135 8.20377C13.8055 8.24476 13.9048 8.2668 14.0055 8.26858C14.1062 8.27036 14.2062 8.25183 14.2996 8.21411C14.393 8.17639 14.4778 8.12024 14.549 8.04902C14.6203 7.97781 14.6764 7.89297 14.7141 7.79958C14.7518 7.7062 14.7704 7.60617 14.7686 7.50546C14.7668 7.40476 14.7448 7.30545 14.7038 7.21345C14.6628 7.12145 14.6037 7.03865 14.53 6.96999L13.47 8.02999ZM9.426 18.322C7.91 17.127 6.253 15.96 4.938 14.48C3.65 13.028 2.75 11.335 2.75 9.13699H1.25C1.25 11.803 2.36 13.837 3.817 15.476C5.247 17.086 7.071 18.376 8.497 19.5L9.426 18.322ZM2.75 9.13699C2.75 6.98699 3.965 5.18299 5.624 4.42399C7.236 3.68699 9.402 3.88199 11.46 6.01999L12.54 4.98099C10.1 2.44399 7.264 2.02499 5 3.05999C2.786 4.07299 1.25 6.42499 1.25 9.13699H2.75ZM8.497 19.5C9.01 19.904 9.56 20.334 10.117 20.66C10.674 20.986 11.31 21.25 12 21.25V19.75C11.69 19.75 11.326 19.63 10.874 19.365C10.421 19.101 9.952 18.737 9.426 18.322L8.497 19.5ZM15.503 19.5C16.929 18.375 18.753 17.087 20.183 15.476C21.64 13.836 22.75 11.803 22.75 9.13699H21.25C21.25 11.335 20.35 13.028 19.062 14.48C17.747 15.96 16.09 17.127 14.574 18.322L15.503 19.5ZM22.75 9.13699C22.75 6.42499 21.215 4.07299 19 3.05999C16.736 2.02499 13.902 2.44399 11.46 4.97999L12.54 6.01999C14.598 3.88299 16.764 3.68699 18.376 4.42399C20.035 5.18299 21.25 6.98599 21.25 9.13699H22.75ZM14.574 18.322C14.048 18.737 13.579 19.101 13.126 19.365C12.673 19.629 12.31 19.75 12 19.75V21.25C12.69 21.25 13.326 20.985 13.883 20.66C14.441 20.334 14.99 19.904 15.503 19.5L14.574 18.322ZM11.47 6.03099L13.47 8.02999L14.53 6.96999L12.53 4.96999L11.47 6.03099Z" fill="#B02A61"/>
</svg>
